<?xml version="1.0" encoding="UTF-8"?>
<!-- SPDX-FileCopyrightText: 2026 KIM Hyunjae -->
<!-- SPDX-License-Identifier: AGPL-3.0-or-later -->
<svg xmlns="http://www.w3.org/2000/svg" width="48" height="48" viewBox="0 0 48 48" version="1.1" shape-rendering="geometricPrecision">
  <title>City Sunset Photo Icon</title>
  <desc>Designed for KDE HIG colorful application icon: 48x48 viewport, 4px clear margins, balanced portrait frame, 1px hard shadow.</desc>
  <defs>
    <linearGradient id="cy_frame" x1="24" y1="4" x2="24" y2="44" gradientUnits="userSpaceOnUse">
      <stop offset="0" stop-color="#ffffff"/>
      <stop offset="0.55" stop-color="#f1f5f8"/>
      <stop offset="1" stop-color="#d5dde4"/>
    </linearGradient>
    <linearGradient id="cy_rim" x1="24" y1="4" x2="24" y2="44" gradientUnits="userSpaceOnUse">
      <stop offset="0" stop-color="#ffffff" stop-opacity="0.9"/>
      <stop offset="1" stop-color="#8997a3" stop-opacity="0.45"/>
    </linearGradient>
    <mask id="cy_mask" maskUnits="userSpaceOnUse" maskContentUnits="userSpaceOnUse" x="0" y="0" width="48" height="48">
      <rect width="48" height="48" fill="black"/>
      <rect x="10.8" y="6" width="26.4" height="34.6" rx="2" fill="white"/>
    </mask>

    <linearGradient id="cy_sky" x1="24" y1="6" x2="24" y2="33" gradientUnits="userSpaceOnUse"><stop offset="0" stop-color="#bd5de8"/><stop offset="0.48" stop-color="#ff8c42"/><stop offset="1" stop-color="#ffd95a"/></linearGradient>
    <linearGradient id="cy_b1" x1="24" y1="21" x2="24" y2="40.6" gradientUnits="userSpaceOnUse"><stop offset="0" stop-color="#5560c9"/><stop offset="1" stop-color="#183f8c"/></linearGradient>
    <linearGradient id="cy_b2" x1="16" y1="29" x2="16" y2="40.6" gradientUnits="userSpaceOnUse"><stop offset="0" stop-color="#8e44ad"/><stop offset="1" stop-color="#29195f"/></linearGradient>

  </defs>
  <rect x="8.4" y="4" width="31.2" height="40" rx="3" fill="url(#cy_frame)"/>
  <rect x="9.4" y="5" width="29.2" height="38" rx="2.6" fill="#ffffff" opacity="0.72"/>
  <g mask="url(#cy_mask)">

    <rect x="10.8" y="6" width="26.4" height="34.6" fill="url(#cy_sky)"/>
    <circle cx="19" cy="30" r="3.2" fill="#fff176" opacity="0.88"/>
    <path d="M14.8 17h7.8c0-.9-.9-1.5-2-1.4-.5-1.3-1.8-2-3.2-1.9-1.4.2-2.4 1.1-2.6 2.3-.8-.1-1.4.2-1.6.7-.1.6.5.3 1.6.3zM29.5 16.4h4.2c-.2-.7-.9-1.1-1.6-1-.6-1.1-2.6-1.1-3.1.1-.8.1-1.3.5-1.5.9z" fill="#ffd7b3" opacity="0.58"/>
    <rect x="21.4" y="21" width="5.8" height="19.6" fill="url(#cy_b1)"/>
    <rect x="22.8" y="18" width="3" height="3.4" rx="0.5" fill="#344aa5"/>
    <rect x="24" y="15.1" width="0.55" height="3.3" rx="0.25" fill="#344aa5"/>
    <rect x="28" y="26" width="4.3" height="14.6" fill="#214f9a"/>
    <path d="M28 26l4.3 2.8v-2.8z" fill="#3f7fd1"/>
    <rect x="16.3" y="30" width="5" height="10.6" fill="url(#cy_b2)"/>
    <rect x="10.8" y="34.2" width="3.2" height="6.4" fill="#4b2a83"/><rect x="13" y="33" width="4.3" height="7.6" fill="#44237e"/><rect x="18.4" y="34.5" width="4.4" height="6.1" fill="#22205f"/>
    <rect x="25.4" y="32" width="3.7" height="8.6" fill="#173373"/><rect x="31.6" y="30.5" width="3.4" height="10.1" fill="#173d77"/><rect x="34.9" y="33.2" width="2.3" height="7.4" fill="#12346d"/>
    <g fill="#ffe778" opacity="0.95">
      <rect x="23" y="30.1" width="0.6" height="1" rx="0.15"/><rect x="23" y="32.5" width="0.6" height="1" rx="0.15"/><rect x="26.2" y="31.7" width="0.6" height="1" rx="0.15"/>
      <rect x="18.2" y="36.2" width="0.6" height="0.8" rx="0.12"/><rect x="19.4" y="36.2" width="0.6" height="0.8" rx="0.12"/>
      <rect x="29.3" y="29" width="0.55" height="0.9" rx="0.12"/><rect x="30.5" y="29" width="0.55" height="0.9" rx="0.12"/><rect x="31.7" y="29" width="0.55" height="0.9" rx="0.12"/>
      <rect x="29.3" y="31.2" width="0.55" height="0.9" rx="0.12"/><rect x="31.7" y="31.2" width="0.55" height="0.9" rx="0.12"/>
      <rect x="27.0" y="36" width="0.6" height="0.9" rx="0.12"/><rect x="35.4" y="35.6" width="0.55" height="0.85" rx="0.12"/>
    </g>

  </g>
  <rect x="10.8" y="6" width="26.4" height="34.6" rx="2" fill="none" stroke="#ffffff" stroke-width="0.7" opacity="0.86"/>
  <path d="M11.8 40.1H36.2" stroke="#75838f" stroke-width="0.45" opacity="0.28"/>
  <rect x="8.4" y="43" width="31.2" height="1" fill="#000000" opacity="0.10"/>
  <rect x="8.7" y="4.3" width="30.6" height="39.4" rx="2.7" fill="none" stroke="url(#cy_rim)" stroke-width="0.6"/>
</svg>
