<?xml version="1.0" encoding="UTF-8"?>
<svg xmlns="http://www.w3.org/2000/svg" width="512" height="512" viewBox="0 0 512 512" version="1.1" shape-rendering="geometricPrecision">
  <title>City Sunset Photo Icon</title>
  <defs>
    <linearGradient id="frame-fill" x1="256" y1="40" x2="256" y2="472" gradientUnits="userSpaceOnUse">
      <stop offset="0" stop-color="#ffffff"/>
      <stop offset="0.52" stop-color="#f2f6f9"/>
      <stop offset="1" stop-color="#d5dde4"/>
    </linearGradient>
    <linearGradient id="frame-sheen" x1="256" y1="40" x2="256" y2="472" gradientUnits="userSpaceOnUse">
      <stop offset="0" stop-color="#ffffff" stop-opacity="0.72"/>
      <stop offset="0.24" stop-color="#ffffff" stop-opacity="0.28"/>
      <stop offset="1" stop-color="#8a98a5" stop-opacity="0.18"/>
    </linearGradient>
    <linearGradient id="sky-fill" x1="256" y1="60" x2="256" y2="452" gradientUnits="userSpaceOnUse">
      <stop offset="0" stop-color="#bd5de8"/>
      <stop offset="0.46" stop-color="#ff8c42"/>
      <stop offset="1" stop-color="#ffd95a"/>
    </linearGradient>
    <radialGradient id="sun-glow" cx="192" cy="334" r="92" gradientUnits="userSpaceOnUse">
      <stop offset="0" stop-color="#fff7a8" stop-opacity="0.72"/>
      <stop offset="0.46" stop-color="#ffd95a" stop-opacity="0.24"/>
      <stop offset="1" stop-color="#ffd95a" stop-opacity="0"/>
    </radialGradient>
    <linearGradient id="tower-fill" x1="260" y1="226" x2="260" y2="452" gradientUnits="userSpaceOnUse">
      <stop offset="0" stop-color="#5560c9"/>
      <stop offset="1" stop-color="#183f8c"/>
    </linearGradient>
    <linearGradient id="left-building-fill" x1="188" y1="333" x2="188" y2="452" gradientUnits="userSpaceOnUse">
      <stop offset="0" stop-color="#8e44ad"/>
      <stop offset="1" stop-color="#29195f"/>
    </linearGradient>
    <filter id="soft-shadow" x="84" y="444" width="344" height="44" filterUnits="userSpaceOnUse" color-interpolation-filters="sRGB">
      <feGaussianBlur stdDeviation="4"/>
    </filter>
    <clipPath id="inner-clip">
      <rect x="114" y="60" width="284" height="392" rx="31.84" ry="31.84"/>
    </clipPath>
  </defs>
  <ellipse cx="256" cy="469" rx="162" ry="13" fill="#000000" opacity="0.13" filter="url(#soft-shadow)"/>
  <g clip-path="url(#inner-clip)">
    <rect x="114" y="60" width="284" height="392" fill="url(#sky-fill)"/>
    <circle cx="192" cy="334" r="92" fill="url(#sun-glow)"/>
    <circle cx="192" cy="334" r="41" fill="#fff176" opacity="0.88"/>
    <path d="M136 202H238c-2.5-12-13.5-20-27-19c-6.8-16.5-24-26.5-42-24.5c-18.5 2.4-31.5 14.5-34.5 30.5c-10.5-1.6-18.5 2.4-21 9c-1.2 8 6.5 4 22.5 4z" fill="#ffd7b3" opacity="0.58"/>
    <path d="M307 192h55c-2.2-9.5-11.5-15.5-21-14c-8-14.5-34-14.5-40.5 1.5c-10.2 1.2-17.2 6.2-19.5 12.5z" fill="#ffd7b3" opacity="0.52"/>
    <rect x="222.5" y="226" width="74.8" height="226" fill="url(#tower-fill)"/>
    <rect x="240.5" y="191" width="38.7" height="39.8" rx="6" ry="6" fill="#344aa5"/>
    <rect x="254.5" y="156" width="7.1" height="39.3" rx="3.55" ry="3.55" fill="#344aa5"/>
    <rect x="307.6" y="286" width="55.5" height="166" fill="#214f9a"/>
    <path d="M307.6 286l55.5 33.3V286z" fill="#3f7fd1"/>
    <rect x="156.6" y="333" width="64.6" height="119" fill="url(#left-building-fill)"/>
    <rect x="114" y="369" width="55.5" height="83" fill="#44237e"/>
    <rect x="184.3" y="393.5" width="56.8" height="58.5" fill="#22205f"/>
    <rect x="269" y="357" width="47.8" height="95" fill="#173373"/>
    <rect x="354.1" y="339" width="43.9" height="113" fill="#173d77"/>
    <path d="M114 414h284v38H114z" fill="#17295f" opacity="0.28"/>
    <g fill="#ffe778" opacity="0.95">
      <rect x="237" y="333" width="8" height="13" rx="2" ry="2"/>
      <rect x="237" y="362" width="8" height="13" rx="2" ry="2"/>
      <rect x="278" y="352" width="8" height="13" rx="2" ry="2"/>
      <rect x="278" y="390" width="8" height="13" rx="2" ry="2"/>
      <rect x="180" y="405" width="8" height="10" rx="2" ry="2"/>
      <rect x="196" y="405" width="8" height="10" rx="2" ry="2"/>
      <rect x="181" y="431" width="8" height="10" rx="2" ry="2"/>
      <rect x="324" y="321" width="7" height="11" rx="1.8" ry="1.8"/>
      <rect x="340" y="321" width="7" height="11" rx="1.8" ry="1.8"/>
      <rect x="356" y="321" width="7" height="11" rx="1.8" ry="1.8"/>
      <rect x="324" y="350" width="7" height="11" rx="1.8" ry="1.8"/>
      <rect x="356" y="350" width="7" height="11" rx="1.8" ry="1.8"/>
      <rect x="282" y="405" width="8" height="11" rx="2" ry="2"/>
    </g>
  </g>
  <path fill="url(#frame-fill)" fill-rule="evenodd" d="M145.84 40H366.16A51.84 51.84 0 0 1 418 91.84V420.16A51.84 51.84 0 0 1 366.16 472H145.84A51.84 51.84 0 0 1 94 420.16V91.84A51.84 51.84 0 0 1 145.84 40ZM145.84 60H366.16A31.84 31.84 0 0 1 398 91.84V420.16A31.84 31.84 0 0 1 366.16 452H145.84A31.84 31.84 0 0 1 114 420.16V91.84A31.84 31.84 0 0 1 145.84 60Z"/>
  <path fill="url(#frame-sheen)" fill-rule="evenodd" d="M145.84 40H366.16A51.84 51.84 0 0 1 418 91.84V420.16A51.84 51.84 0 0 1 366.16 472H145.84A51.84 51.84 0 0 1 94 420.16V91.84A51.84 51.84 0 0 1 145.84 40ZM145.84 60H366.16A31.84 31.84 0 0 1 398 91.84V420.16A31.84 31.84 0 0 1 366.16 452H145.84A31.84 31.84 0 0 1 114 420.16V91.84A31.84 31.84 0 0 1 145.84 60Z"/>
</svg>
